{
  "accessors": [
    {
      "bufferView": 2,
      "componentType": 5126,
      "count": 2777,
      "max": [
        35.93048858642578,
        36.12129592895508,
        139.52127075195313
      ],
      "min": [
        -34.578651428222656,
        -34.38784408569336,
        -396.17138671875
      ],
      "type": "VEC3"
    },
    {
      "bufferView": 2,
      "byteOffset": 33324,
      "componentType": 5126,
      "count": 2777,
      "max": [
        1.0,
        0.9954124689102173,
        1.0
      ],
      "min": [
        -0.9954124689102173,
        -0.9997193813323975,
        -1.0
      ],
      "type": "VEC3"
    },
    {
      "bufferView": 3,
      "componentType": 5126,
      "count": 2777,
      "max": [
        1.0,
        1.0,
        1.0,
        1.0
      ],
      "min": [
        -1.0,
        -1.0,
        -0.9851011037826538,
        1.0
      ],
      "type": "VEC4"
    },
    {
      "bufferView": 1,
      "componentType": 5126,
      "count": 2777,
      "max": [
        0.994897723197937,
        0.9879533648490906
      ],
      "min": [
        0.014281832613050938,
        0.02617436833679676
      ],
      "type": "VEC2"
    },
    {
      "bufferView": 0,
      "componentType": 5125,
      "count": 5916,
      "type": "SCALAR"
    }
  ],
  "asset": {
    "extras": {
      "author": "Memo29 (https://sketchfab.com/Memo29)",
      "license": "CC-BY-4.0 (http://creativecommons.org/licenses/by/4.0/)",
      "source": "https://sketchfab.com/3d-models/street-lantern-ad8a93bbc2a946bb87de2575036a6a69",
      "title": "Street Lantern"
    },
    "generator": "Sketchfab-12.68.0",
    "version": "2.0"
  },
  "bufferViews": [
    {
      "buffer": 0,
      "byteLength": 23664,
      "name": "floatBufferViews",
      "target": 34963
    },
    {
      "buffer": 0,
      "byteLength": 22216,
      "byteOffset": 23664,
      "byteStride": 8,
      "name": "floatBufferViews",
      "target": 34962
    },
    {
      "buffer": 0,
      "byteLength": 66648,
      "byteOffset": 45880,
      "byteStride": 12,
      "name": "floatBufferViews",
      "target": 34962
    },
    {
      "buffer": 0,
      "byteLength": 44432,
      "byteOffset": 112528,
      "byteStride": 16,
      "name": "floatBufferViews",
      "target": 34962
    }
  ],
  "buffers": [
    {
      "byteLength": 156960,
      "uri": "scene.bin"
    }
  ],
  "images": [
    {
      "uri": "textures/Material_47_baseColor.jpeg"
    },
    {
      "uri": "textures/Material_47_normal.png"
    }
  ],
  "materials": [
    {
      "doubleSided": true,
      "name": "Material_47",
      "normalTexture": {
        "index": 1
      },
      "pbrMetallicRoughness": {
        "baseColorTexture": {
          "index": 0
        },
        "metallicFactor": 0.709032012195122,
        "roughnessFactor": 0.5653582317073171
      }
    }
  ],
  "meshes": [
    {
      "name": "Laterne 1_Material #47_0",
      "primitives": [
        {
          "attributes": {
            "NORMAL": 1,
            "POSITION": 0,
            "TANGENT": 2,
            "TEXCOORD_0": 3
          },
          "indices": 4,
          "material": 0,
          "mode": 4
        }
      ]
    }
  ],
  "nodes": [
    {
      "children": [
        1
      ],
      "matrix": [
        1.0,
        0.0,
        0.0,
        0.0,
        0.0,
        2.220446049250313e-16,
        -1.0,
        0.0,
        0.0,
        1.0,
        2.220446049250313e-16,
        0.0,
        0.0,
        0.0,
        0.0,
        1.0
      ],
      "name": "Sketchfab_model"
    },
    {
      "children": [
        2
      ],
      "matrix": [
        1.0,
        0.0,
        0.0,
        0.0,
        0.0,
        0.0,
        1.0,
        0.0,
        0.0,
        -1.0,
        0.0,
        0.0,
        0.0,
        0.0,
        0.0,
        1.0
      ],
      "name": "e31618d155c0411d9830d9187c85e5cc.fbx"
    },
    {
      "children": [
        3
      ],
      "name": "RootNode"
    },
    {
      "children": [
        4
      ],
      "matrix": [
        0.563697874546051,
        0.0,
        0.0,
        0.0,
        0.0,
        1.2516607185065776e-16,
        -0.563697874546051,
        0.0,
        0.0,
        0.563697874546051,
        1.2516607185065776e-16,
        0.0,
        0.0,
        0.0,
        0.0,
        1.0
      ],
      "name": "Laterne 1"
    },
    {
      "children": [
        5
      ],
      "matrix": [
        1.0,
        0.0,
        -0.0,
        0.0,
        0.0,
        1.0,
        0.0,
        0.0,
        0.0,
        0.0,
        1.0,
        0.0,
        15.363380432128906,
        13.006190299987793,
        396.17138671875,
        1.0
      ],
      "name": "Object_4"
    },
    {
      "mesh": 0,
      "name": "Laterne 1_Material #47_0"
    }
  ],
  "samplers": [
    {
      "magFilter": 9729,
      "minFilter": 9987,
      "wrapS": 10497,
      "wrapT": 10497
    }
  ],
  "scene": 0,
  "scenes": [
    {
      "name": "Sketchfab_Scene",
      "nodes": [
        0
      ]
    }
  ],
  "textures": [
    {
      "sampler": 0,
      "source": 0
    },
    {
      "sampler": 0,
      "source": 1
    }
  ]
}
